<?xml version="1.0" ?><!DOCTYPE svg  PUBLIC '-//W3C//DTD SVG 1.1//EN'  'http://www.w3.org/Graphics/SVG/1.1/DTD/svg11.dtd'><svg enable-background="new 0 0 100 75" height="75" id="Layer_1" overflow="visible" version="1.1" viewBox="0 0 100 75" width="100" xml:space="preserve" xmlns="http://www.w3.org/2000/svg" xmlns:xlink="http://www.w3.org/1999/xlink"><path d="M95.834,66.666c0,2.297-1.87,4.168-4.168,4.168H8.333c-2.297,0-4.167-1.871-4.167-4.168V8.334  c0-2.297,1.87-4.168,4.167-4.168h83.333c2.298,0,4.168,1.871,4.168,4.168V66.666z" fill="#E7E8E8"/><path d="M53.297,30.943h-7.463v19.064h2.967v-6.504h4.406c3.748,0,6.385-2.578,6.385-6.295  S56.984,30.943,53.297,30.943z M52.518,41.016h-3.717v-7.583h3.717c2.578,0,4.047,1.408,4.047,3.807  C56.564,39.639,55.066,41.016,52.518,41.016z" fill="#6E6E96"/><path d="M66.605,35.47c-3.207,0-5.604,1.858-5.694,4.407h2.668c0.239-1.229,1.379-2.039,2.938-2.039  c1.887,0,2.996,0.898,2.996,2.549v1.108l-3.867,0.21c-3.537,0.24-5.484,1.678-5.484,4.195c0,2.549,1.979,4.258,4.886,4.229  c1.948,0,3.747-0.99,4.526-2.549h0.061v2.398h2.727v-9.832C72.361,37.328,70.113,35.47,66.605,35.47z M69.516,44.613  c0,1.888-1.619,3.236-3.719,3.267c-1.648,0-2.727-0.778-2.727-2.009c0-1.289,1.019-2.008,2.967-2.127l3.479-0.24V44.613z" fill="#6E6E96"/><path d="M80.814,47.34h-0.06l-3.688-11.721H73.98l5.217,14.389l-0.211,0.75c-0.479,1.529-1.26,2.098-2.607,2.098  c-0.24,0-0.689,0-0.898-0.059v2.338c0.238,0.029,0.929,0.09,1.14,0.059c2.938,0,4.286-1.107,5.517-4.555l5.363-15.02h-2.998  L80.814,47.34z" fill="#6E6E96"/><path d="M35.168,38.543c-0.039-4.216,3.445-6.247,3.602-6.344c-1.956-2.868-5.009-3.261-6.096-3.307  c-2.596-0.261-5.064,1.529-6.383,1.529c-1.313,0-3.348-1.49-5.498-1.447c-2.832,0.039-5.44,1.644-6.898,4.177  c-2.938,5.101-0.751,12.656,2.113,16.794c1.398,2.021,3.07,4.301,5.262,4.219c2.115-0.082,2.91-1.363,5.461-1.363  c2.551,0,3.268,1.363,5.504,1.322c2.27-0.041,3.711-2.064,5.102-4.094c1.606-2.352,2.268-4.625,2.307-4.744  C39.594,45.268,35.215,43.586,35.168,38.543z" fill="#6E6E96"/><path d="M32.707,20.834c-1.677,0.066-3.709,1.118-4.91,2.525c-1.08,1.249-2.024,3.243-1.768,5.156  c1.869,0.145,3.779-0.949,4.945-2.358C32.139,24.746,32.921,22.787,32.707,20.834z" fill="#6E6E96"/></svg>